<mxfile host="app.diagrams.net" agent="Mozilla/5.0 (X11; Linux x86_64) AppleWebKit/537.36 (KHTML, like Gecko) Chrome/124.0.0.0 Safari/537.36" version="25.0.3">
  <diagram name="Page-1" id="-H_mtQnk-PTXWXPvYvuk">
    <mxGraphModel dx="4849" dy="2020" grid="1" gridSize="10" guides="1" tooltips="1" connect="1" arrows="1" fold="1" page="1" pageScale="1" pageWidth="1169" pageHeight="827" math="0" shadow="0">
      <root>
        <mxCell id="0" />
        <mxCell id="1" parent="0" />
        <mxCell id="zA23MoTUsTF4_91t8viU-2" value="MongoDB&lt;div&gt;shard-1&lt;/div&gt;" style="shape=cylinder3;whiteSpace=wrap;html=1;boundedLbl=1;backgroundOutline=1;size=15;" parent="1" vertex="1">
          <mxGeometry x="890" y="300" width="60" height="80" as="geometry" />
        </mxCell>
        <mxCell id="zA23MoTUsTF4_91t8viU-3" value="pymongo-api" style="rounded=1;whiteSpace=wrap;html=1;" parent="1" vertex="1">
          <mxGeometry x="140" y="450" width="120" height="60" as="geometry" />
        </mxCell>
        <mxCell id="Y72UmxWWj603CafinMp_-1" value="&lt;br&gt;&lt;br&gt;&lt;br&gt;&lt;br&gt;&lt;br&gt;&lt;br&gt;&lt;br&gt;&lt;br&gt;Mongos Router" style="shape=sumEllipse;perimeter=ellipsePerimeter;whiteSpace=wrap;html=1;backgroundOutline=1;" parent="1" vertex="1">
          <mxGeometry x="580" y="440" width="80" height="80" as="geometry" />
        </mxCell>
        <mxCell id="Y72UmxWWj603CafinMp_-2" value="" style="endArrow=classic;html=1;rounded=0;entryX=0;entryY=0.5;entryDx=0;entryDy=0;exitX=1;exitY=0.5;exitDx=0;exitDy=0;" parent="1" source="zA23MoTUsTF4_91t8viU-3" target="Y72UmxWWj603CafinMp_-1" edge="1">
          <mxGeometry width="50" height="50" relative="1" as="geometry">
            <mxPoint x="600" y="480" as="sourcePoint" />
            <mxPoint x="650" y="430" as="targetPoint" />
          </mxGeometry>
        </mxCell>
        <mxCell id="Y72UmxWWj603CafinMp_-5" value="MongoDB&lt;div&gt;shard2&lt;/div&gt;" style="shape=cylinder3;whiteSpace=wrap;html=1;boundedLbl=1;backgroundOutline=1;size=15;" parent="1" vertex="1">
          <mxGeometry x="890" y="580" width="60" height="80" as="geometry" />
        </mxCell>
        <mxCell id="Y72UmxWWj603CafinMp_-6" value="" style="endArrow=classic;html=1;rounded=0;entryX=0;entryY=0;entryDx=0;entryDy=52.5;entryPerimeter=0;" parent="1" target="Y72UmxWWj603CafinMp_-7" edge="1">
          <mxGeometry width="50" height="50" relative="1" as="geometry">
            <mxPoint x="660" y="480" as="sourcePoint" />
            <mxPoint x="750" y="480" as="targetPoint" />
          </mxGeometry>
        </mxCell>
        <mxCell id="Y72UmxWWj603CafinMp_-7" value="MongoDB&lt;br&gt;config-srv" style="shape=cylinder3;whiteSpace=wrap;html=1;boundedLbl=1;backgroundOutline=1;size=15;" parent="1" vertex="1">
          <mxGeometry x="900" y="430" width="60" height="80" as="geometry" />
        </mxCell>
        <mxCell id="Y72UmxWWj603CafinMp_-8" value="" style="endArrow=classic;html=1;rounded=0;entryX=0;entryY=0.5;entryDx=0;entryDy=0;entryPerimeter=0;" parent="1" target="zA23MoTUsTF4_91t8viU-2" edge="1">
          <mxGeometry width="50" height="50" relative="1" as="geometry">
            <mxPoint x="660" y="480" as="sourcePoint" />
            <mxPoint x="900" y="493" as="targetPoint" />
          </mxGeometry>
        </mxCell>
        <mxCell id="Y72UmxWWj603CafinMp_-9" value="" style="endArrow=classic;html=1;rounded=0;entryX=0;entryY=0;entryDx=0;entryDy=52.5;entryPerimeter=0;exitX=1;exitY=0.5;exitDx=0;exitDy=0;" parent="1" source="Y72UmxWWj603CafinMp_-1" target="Y72UmxWWj603CafinMp_-5" edge="1">
          <mxGeometry width="50" height="50" relative="1" as="geometry">
            <mxPoint x="670" y="490" as="sourcePoint" />
            <mxPoint x="900" y="350" as="targetPoint" />
          </mxGeometry>
        </mxCell>
        <mxCell id="Y72UmxWWj603CafinMp_-10" value="MongoDB&lt;div&gt;shard1r2&lt;/div&gt;" style="shape=cylinder3;whiteSpace=wrap;html=1;boundedLbl=1;backgroundOutline=1;size=15;" parent="1" vertex="1">
          <mxGeometry x="890" y="170" width="60" height="80" as="geometry" />
        </mxCell>
        <mxCell id="Y72UmxWWj603CafinMp_-11" value="MongoDB&lt;div&gt;shard1r3&lt;/div&gt;" style="shape=cylinder3;whiteSpace=wrap;html=1;boundedLbl=1;backgroundOutline=1;size=15;" parent="1" vertex="1">
          <mxGeometry x="1020" y="220" width="60" height="80" as="geometry" />
        </mxCell>
        <mxCell id="Y72UmxWWj603CafinMp_-15" value="" style="whiteSpace=wrap;html=1;aspect=fixed;fillColor=none;" parent="1" vertex="1">
          <mxGeometry x="870" y="560" width="240" height="240" as="geometry" />
        </mxCell>
        <mxCell id="Y72UmxWWj603CafinMp_-20" value="MongoDB&lt;div&gt;shard2r3&lt;/div&gt;" style="shape=cylinder3;whiteSpace=wrap;html=1;boundedLbl=1;backgroundOutline=1;size=15;" parent="1" vertex="1">
          <mxGeometry x="890" y="710" width="60" height="80" as="geometry" />
        </mxCell>
        <mxCell id="Y72UmxWWj603CafinMp_-21" value="MongoDB&lt;div&gt;shard2r2&lt;/div&gt;" style="shape=cylinder3;whiteSpace=wrap;html=1;boundedLbl=1;backgroundOutline=1;size=15;" parent="1" vertex="1">
          <mxGeometry x="1020" y="580" width="60" height="80" as="geometry" />
        </mxCell>
        <mxCell id="Y72UmxWWj603CafinMp_-23" value="" style="whiteSpace=wrap;html=1;aspect=fixed;fillColor=none;" parent="1" vertex="1">
          <mxGeometry x="870" y="150" width="240" height="240" as="geometry" />
        </mxCell>
        <mxCell id="Y72UmxWWj603CafinMp_-24" value="&lt;br&gt;&lt;br&gt;&lt;br&gt;&lt;br&gt;&lt;br&gt;Redis" style="shape=datastore;whiteSpace=wrap;html=1;" parent="1" vertex="1">
          <mxGeometry x="580" y="670" width="60" height="60" as="geometry" />
        </mxCell>
        <mxCell id="Y72UmxWWj603CafinMp_-25" value="" style="endArrow=classic;html=1;rounded=0;exitX=0.5;exitY=1;exitDx=0;exitDy=0;entryX=0;entryY=0.5;entryDx=0;entryDy=0;" parent="1" source="zA23MoTUsTF4_91t8viU-3" target="Y72UmxWWj603CafinMp_-24" edge="1">
          <mxGeometry width="50" height="50" relative="1" as="geometry">
            <mxPoint x="600" y="580" as="sourcePoint" />
            <mxPoint x="650" y="530" as="targetPoint" />
            <Array as="points">
              <mxPoint x="200" y="700" />
            </Array>
          </mxGeometry>
        </mxCell>
        <mxCell id="19fwC29WDZHClAssnjyL-2" value="" style="endArrow=classic;startArrow=classic;html=1;rounded=0;entryX=0.5;entryY=1;entryDx=0;entryDy=0;entryPerimeter=0;exitX=0.5;exitY=0;exitDx=0;exitDy=0;exitPerimeter=0;" edge="1" parent="1" source="zA23MoTUsTF4_91t8viU-2" target="Y72UmxWWj603CafinMp_-10">
          <mxGeometry width="50" height="50" relative="1" as="geometry">
            <mxPoint x="860" y="350" as="sourcePoint" />
            <mxPoint x="910" y="300" as="targetPoint" />
          </mxGeometry>
        </mxCell>
        <mxCell id="19fwC29WDZHClAssnjyL-3" value="" style="endArrow=classic;startArrow=classic;html=1;rounded=0;entryX=0;entryY=0.5;entryDx=0;entryDy=0;entryPerimeter=0;exitX=1;exitY=0.5;exitDx=0;exitDy=0;exitPerimeter=0;" edge="1" parent="1" source="Y72UmxWWj603CafinMp_-10" target="Y72UmxWWj603CafinMp_-11">
          <mxGeometry width="50" height="50" relative="1" as="geometry">
            <mxPoint x="860" y="350" as="sourcePoint" />
            <mxPoint x="910" y="300" as="targetPoint" />
          </mxGeometry>
        </mxCell>
        <mxCell id="19fwC29WDZHClAssnjyL-4" value="" style="endArrow=classic;startArrow=classic;html=1;rounded=0;entryX=0.5;entryY=1;entryDx=0;entryDy=0;entryPerimeter=0;exitX=1;exitY=0.5;exitDx=0;exitDy=0;exitPerimeter=0;" edge="1" parent="1" source="zA23MoTUsTF4_91t8viU-2" target="Y72UmxWWj603CafinMp_-11">
          <mxGeometry width="50" height="50" relative="1" as="geometry">
            <mxPoint x="860" y="350" as="sourcePoint" />
            <mxPoint x="910" y="300" as="targetPoint" />
          </mxGeometry>
        </mxCell>
        <mxCell id="19fwC29WDZHClAssnjyL-5" value="" style="endArrow=classic;startArrow=classic;html=1;rounded=0;entryX=0;entryY=0.5;entryDx=0;entryDy=0;entryPerimeter=0;exitX=1;exitY=0.5;exitDx=0;exitDy=0;exitPerimeter=0;" edge="1" parent="1" source="Y72UmxWWj603CafinMp_-5" target="Y72UmxWWj603CafinMp_-21">
          <mxGeometry width="50" height="50" relative="1" as="geometry">
            <mxPoint x="880" y="520" as="sourcePoint" />
            <mxPoint x="930" y="470" as="targetPoint" />
          </mxGeometry>
        </mxCell>
        <mxCell id="19fwC29WDZHClAssnjyL-7" value="Primary" style="text;html=1;align=center;verticalAlign=middle;whiteSpace=wrap;rounded=0;" vertex="1" parent="1">
          <mxGeometry x="890" y="574" width="60" height="39" as="geometry" />
        </mxCell>
        <mxCell id="19fwC29WDZHClAssnjyL-8" value="Primary" style="text;html=1;align=center;verticalAlign=middle;whiteSpace=wrap;rounded=0;" vertex="1" parent="1">
          <mxGeometry x="890" y="300" width="60" height="39" as="geometry" />
        </mxCell>
        <mxCell id="19fwC29WDZHClAssnjyL-9" value="" style="endArrow=classic;startArrow=classic;html=1;rounded=0;entryX=0.5;entryY=1;entryDx=0;entryDy=0;entryPerimeter=0;exitX=0.5;exitY=0;exitDx=0;exitDy=0;exitPerimeter=0;" edge="1" parent="1" source="Y72UmxWWj603CafinMp_-20" target="Y72UmxWWj603CafinMp_-5">
          <mxGeometry width="50" height="50" relative="1" as="geometry">
            <mxPoint x="880" y="520" as="sourcePoint" />
            <mxPoint x="930" y="470" as="targetPoint" />
          </mxGeometry>
        </mxCell>
        <mxCell id="19fwC29WDZHClAssnjyL-10" value="" style="endArrow=classic;startArrow=classic;html=1;rounded=0;entryX=0.5;entryY=1;entryDx=0;entryDy=0;entryPerimeter=0;exitX=1;exitY=0.5;exitDx=0;exitDy=0;exitPerimeter=0;" edge="1" parent="1" source="Y72UmxWWj603CafinMp_-20" target="Y72UmxWWj603CafinMp_-21">
          <mxGeometry width="50" height="50" relative="1" as="geometry">
            <mxPoint x="930" y="720" as="sourcePoint" />
            <mxPoint x="930" y="670" as="targetPoint" />
          </mxGeometry>
        </mxCell>
        <mxCell id="19fwC29WDZHClAssnjyL-11" value="shard 1" style="text;html=1;align=center;verticalAlign=middle;whiteSpace=wrap;rounded=0;" vertex="1" parent="1">
          <mxGeometry x="1050" y="150" width="60" height="30" as="geometry" />
        </mxCell>
        <mxCell id="19fwC29WDZHClAssnjyL-12" value="shard 2" style="text;html=1;align=center;verticalAlign=middle;whiteSpace=wrap;rounded=0;" vertex="1" parent="1">
          <mxGeometry x="1050" y="770" width="60" height="30" as="geometry" />
        </mxCell>
        <mxCell id="19fwC29WDZHClAssnjyL-13" value="APISIX" style="rounded=1;whiteSpace=wrap;html=1;" vertex="1" parent="1">
          <mxGeometry x="-90" y="320" width="120" height="60" as="geometry" />
        </mxCell>
        <mxCell id="19fwC29WDZHClAssnjyL-45" style="edgeStyle=orthogonalEdgeStyle;rounded=0;orthogonalLoop=1;jettySize=auto;html=1;exitX=0.9;exitY=0.5;exitDx=0;exitDy=0;exitPerimeter=0;entryX=0;entryY=0.5;entryDx=0;entryDy=0;entryPerimeter=0;" edge="1" parent="1" source="19fwC29WDZHClAssnjyL-14" target="19fwC29WDZHClAssnjyL-44">
          <mxGeometry relative="1" as="geometry">
            <mxPoint x="-810" y="120" as="targetPoint" />
          </mxGeometry>
        </mxCell>
        <mxCell id="19fwC29WDZHClAssnjyL-14" value="" style="shape=actor;whiteSpace=wrap;html=1;" vertex="1" parent="1">
          <mxGeometry x="-910" y="60" width="80" height="99" as="geometry" />
        </mxCell>
        <mxCell id="19fwC29WDZHClAssnjyL-15" value="&lt;span style=&quot;color: rgb(0, 0, 0); font-family: Helvetica; font-size: 12px; font-style: normal; font-variant-ligatures: normal; font-variant-caps: normal; font-weight: 400; letter-spacing: normal; orphans: 2; text-align: center; text-indent: 0px; text-transform: none; widows: 2; word-spacing: 0px; -webkit-text-stroke-width: 0px; white-space: normal; background-color: rgb(251, 251, 251); text-decoration-thickness: initial; text-decoration-style: initial; text-decoration-color: initial; display: inline !important; float: none;&quot;&gt;Consil&lt;/span&gt;" style="rounded=1;whiteSpace=wrap;html=1;" vertex="1" parent="1">
          <mxGeometry x="140" y="320" width="120" height="60" as="geometry" />
        </mxCell>
        <mxCell id="19fwC29WDZHClAssnjyL-16" value="pymongo-api" style="rounded=1;whiteSpace=wrap;html=1;" vertex="1" parent="1">
          <mxGeometry x="140" y="180" width="120" height="60" as="geometry" />
        </mxCell>
        <mxCell id="19fwC29WDZHClAssnjyL-18" value="" style="whiteSpace=wrap;html=1;aspect=fixed;fillColor=none;" vertex="1" parent="1">
          <mxGeometry x="567.5" y="105" width="705" height="705" as="geometry" />
        </mxCell>
        <mxCell id="19fwC29WDZHClAssnjyL-19" value="" style="endArrow=classic;startArrow=classic;html=1;rounded=0;entryX=0.25;entryY=1;entryDx=0;entryDy=0;exitX=0.5;exitY=0;exitDx=0;exitDy=0;exitPerimeter=0;" edge="1" parent="1" source="Y72UmxWWj603CafinMp_-7" target="Y72UmxWWj603CafinMp_-23">
          <mxGeometry width="50" height="50" relative="1" as="geometry">
            <mxPoint x="850" y="500" as="sourcePoint" />
            <mxPoint x="900" y="450" as="targetPoint" />
          </mxGeometry>
        </mxCell>
        <mxCell id="19fwC29WDZHClAssnjyL-20" value="" style="endArrow=classic;startArrow=classic;html=1;rounded=0;entryX=0.5;entryY=1;entryDx=0;entryDy=0;exitX=0.25;exitY=0;exitDx=0;exitDy=0;entryPerimeter=0;" edge="1" parent="1" source="Y72UmxWWj603CafinMp_-15" target="Y72UmxWWj603CafinMp_-7">
          <mxGeometry width="50" height="50" relative="1" as="geometry">
            <mxPoint x="940" y="440" as="sourcePoint" />
            <mxPoint x="940" y="400" as="targetPoint" />
            <Array as="points">
              <mxPoint x="930" y="560" />
            </Array>
          </mxGeometry>
        </mxCell>
        <mxCell id="19fwC29WDZHClAssnjyL-21" value="&lt;font style=&quot;font-size: 17px;&quot;&gt;Database Layer&lt;/font&gt;" style="text;html=1;align=center;verticalAlign=middle;whiteSpace=wrap;rounded=0;" vertex="1" parent="1">
          <mxGeometry x="560" y="105" width="190" height="45" as="geometry" />
        </mxCell>
        <mxCell id="19fwC29WDZHClAssnjyL-23" value="" style="endArrow=classic;html=1;rounded=0;exitX=0.5;exitY=1;exitDx=0;exitDy=0;" edge="1" parent="1" source="19fwC29WDZHClAssnjyL-16" target="19fwC29WDZHClAssnjyL-15">
          <mxGeometry width="50" height="50" relative="1" as="geometry">
            <mxPoint x="320" y="430" as="sourcePoint" />
            <mxPoint x="370" y="380" as="targetPoint" />
          </mxGeometry>
        </mxCell>
        <mxCell id="19fwC29WDZHClAssnjyL-24" value="" style="endArrow=classic;html=1;rounded=0;entryX=0.5;entryY=1;entryDx=0;entryDy=0;" edge="1" parent="1" source="zA23MoTUsTF4_91t8viU-3" target="19fwC29WDZHClAssnjyL-15">
          <mxGeometry width="50" height="50" relative="1" as="geometry">
            <mxPoint x="210" y="250" as="sourcePoint" />
            <mxPoint x="210" y="330" as="targetPoint" />
          </mxGeometry>
        </mxCell>
        <mxCell id="19fwC29WDZHClAssnjyL-25" value="" style="endArrow=classic;html=1;rounded=0;entryX=0;entryY=0.5;entryDx=0;entryDy=0;exitX=1;exitY=0.5;exitDx=0;exitDy=0;" edge="1" parent="1" source="19fwC29WDZHClAssnjyL-13" target="19fwC29WDZHClAssnjyL-15">
          <mxGeometry width="50" height="50" relative="1" as="geometry">
            <mxPoint x="40" y="290" as="sourcePoint" />
            <mxPoint x="350" y="400" as="targetPoint" />
          </mxGeometry>
        </mxCell>
        <mxCell id="19fwC29WDZHClAssnjyL-26" value="" style="endArrow=classic;html=1;rounded=0;entryX=0;entryY=0.5;entryDx=0;entryDy=0;exitX=0.5;exitY=0;exitDx=0;exitDy=0;" edge="1" parent="1" source="19fwC29WDZHClAssnjyL-13" target="19fwC29WDZHClAssnjyL-16">
          <mxGeometry width="50" height="50" relative="1" as="geometry">
            <mxPoint x="30" y="350" as="sourcePoint" />
            <mxPoint x="350" y="400" as="targetPoint" />
            <Array as="points">
              <mxPoint x="-30" y="210" />
            </Array>
          </mxGeometry>
        </mxCell>
        <mxCell id="19fwC29WDZHClAssnjyL-27" value="" style="endArrow=classic;html=1;rounded=0;entryX=0;entryY=0.5;entryDx=0;entryDy=0;exitX=0.5;exitY=1;exitDx=0;exitDy=0;" edge="1" parent="1" source="19fwC29WDZHClAssnjyL-13" target="zA23MoTUsTF4_91t8viU-3">
          <mxGeometry width="50" height="50" relative="1" as="geometry">
            <mxPoint x="-20" y="330" as="sourcePoint" />
            <mxPoint x="150" y="220" as="targetPoint" />
            <Array as="points">
              <mxPoint x="-30" y="480" />
            </Array>
          </mxGeometry>
        </mxCell>
        <mxCell id="19fwC29WDZHClAssnjyL-31" value="&lt;font style=&quot;font-size: 17px;&quot;&gt;Application Layer&lt;/font&gt;" style="text;html=1;align=center;verticalAlign=middle;whiteSpace=wrap;rounded=0;" vertex="1" parent="1">
          <mxGeometry x="-330" y="110" width="190" height="45" as="geometry" />
        </mxCell>
        <mxCell id="19fwC29WDZHClAssnjyL-38" value="" style="whiteSpace=wrap;html=1;aspect=fixed;fillColor=none;" vertex="1" parent="1">
          <mxGeometry x="-330" y="110" width="705" height="705" as="geometry" />
        </mxCell>
        <mxCell id="19fwC29WDZHClAssnjyL-39" value="Nginx" style="rounded=1;whiteSpace=wrap;html=1;" vertex="1" parent="1">
          <mxGeometry x="-290" y="320" width="120" height="60" as="geometry" />
        </mxCell>
        <mxCell id="19fwC29WDZHClAssnjyL-40" value="" style="endArrow=classic;html=1;rounded=0;entryX=0;entryY=0.5;entryDx=0;entryDy=0;exitX=1;exitY=0.5;exitDx=0;exitDy=0;" edge="1" parent="1" source="19fwC29WDZHClAssnjyL-39" target="19fwC29WDZHClAssnjyL-13">
          <mxGeometry width="50" height="50" relative="1" as="geometry">
            <mxPoint x="-150" y="330" as="sourcePoint" />
            <mxPoint x="-100" y="280" as="targetPoint" />
          </mxGeometry>
        </mxCell>
        <mxCell id="19fwC29WDZHClAssnjyL-41" value="Регистрация сервиса" style="text;html=1;align=center;verticalAlign=middle;whiteSpace=wrap;rounded=0;" vertex="1" parent="1">
          <mxGeometry x="210" y="270" width="90" height="40" as="geometry" />
        </mxCell>
        <mxCell id="19fwC29WDZHClAssnjyL-42" value="Регистрация сервиса" style="text;html=1;align=center;verticalAlign=middle;whiteSpace=wrap;rounded=0;" vertex="1" parent="1">
          <mxGeometry x="210" y="400" width="90" height="40" as="geometry" />
        </mxCell>
        <mxCell id="19fwC29WDZHClAssnjyL-43" value="Получение списка сервисов" style="text;html=1;align=center;verticalAlign=middle;whiteSpace=wrap;rounded=0;" vertex="1" parent="1">
          <mxGeometry x="40" y="300" width="90" height="40" as="geometry" />
        </mxCell>
        <mxCell id="19fwC29WDZHClAssnjyL-44" value="CDN" style="strokeWidth=2;html=1;shape=mxgraph.flowchart.start_1;whiteSpace=wrap;" vertex="1" parent="1">
          <mxGeometry x="-720" y="80" width="100" height="60" as="geometry" />
        </mxCell>
        <mxCell id="19fwC29WDZHClAssnjyL-46" value="" style="whiteSpace=wrap;html=1;fillColor=none;" vertex="1" parent="1">
          <mxGeometry x="-950" y="30" width="380" height="180" as="geometry" />
        </mxCell>
        <mxCell id="19fwC29WDZHClAssnjyL-48" value="&lt;span style=&quot;font-size: 17px;&quot;&gt;Регион 1&lt;/span&gt;" style="text;html=1;align=center;verticalAlign=middle;whiteSpace=wrap;rounded=0;" vertex="1" parent="1">
          <mxGeometry x="-760" y="30" width="190" height="45" as="geometry" />
        </mxCell>
        <mxCell id="19fwC29WDZHClAssnjyL-54" style="edgeStyle=orthogonalEdgeStyle;rounded=0;orthogonalLoop=1;jettySize=auto;html=1;exitX=0.9;exitY=0.5;exitDx=0;exitDy=0;exitPerimeter=0;entryX=0;entryY=0.5;entryDx=0;entryDy=0;entryPerimeter=0;" edge="1" source="19fwC29WDZHClAssnjyL-55" target="19fwC29WDZHClAssnjyL-56" parent="1">
          <mxGeometry relative="1" as="geometry">
            <mxPoint x="-810" y="610" as="targetPoint" />
          </mxGeometry>
        </mxCell>
        <mxCell id="19fwC29WDZHClAssnjyL-55" value="" style="shape=actor;whiteSpace=wrap;html=1;" vertex="1" parent="1">
          <mxGeometry x="-910" y="550" width="80" height="99" as="geometry" />
        </mxCell>
        <mxCell id="19fwC29WDZHClAssnjyL-56" value="CDN" style="strokeWidth=2;html=1;shape=mxgraph.flowchart.start_1;whiteSpace=wrap;" vertex="1" parent="1">
          <mxGeometry x="-720" y="570" width="100" height="60" as="geometry" />
        </mxCell>
        <mxCell id="19fwC29WDZHClAssnjyL-57" value="" style="whiteSpace=wrap;html=1;fillColor=none;" vertex="1" parent="1">
          <mxGeometry x="-950" y="520" width="380" height="180" as="geometry" />
        </mxCell>
        <mxCell id="19fwC29WDZHClAssnjyL-58" value="&lt;span style=&quot;font-size: 17px;&quot;&gt;Регион 2&lt;/span&gt;" style="text;html=1;align=center;verticalAlign=middle;whiteSpace=wrap;rounded=0;" vertex="1" parent="1">
          <mxGeometry x="-760" y="520" width="190" height="45" as="geometry" />
        </mxCell>
        <mxCell id="19fwC29WDZHClAssnjyL-59" value="" style="strokeWidth=2;html=1;shape=mxgraph.flowchart.annotation_2;align=left;labelPosition=right;pointerEvents=1;rotation=-180;" vertex="1" parent="1">
          <mxGeometry x="-570" y="90" width="280" height="540" as="geometry" />
        </mxCell>
        <mxCell id="19fwC29WDZHClAssnjyL-60" value="&lt;span style=&quot;font-size: 17px;&quot;&gt;Пользователь 2&lt;/span&gt;&lt;span style=&quot;color: rgba(0, 0, 0, 0); font-family: monospace; font-size: 0px; text-align: start; text-wrap: nowrap;&quot;&gt;%3CmxGraphModel%3E%3Croot%3E%3CmxCell%20id%3D%220%22%2F%3E%3CmxCell%20id%3D%221%22%20parent%3D%220%22%2F%3E%3CmxCell%20id%3D%222%22%20value%3D%22%26lt%3Bspan%20style%3D%26quot%3Bfont-size%3A%2017px%3B%26quot%3B%26gt%3B%D0%A0%D0%B5%D0%B3%D0%B8%D0%BE%D0%BD%201%26lt%3B%2Fspan%26gt%3B%22%20style%3D%22text%3Bhtml%3D1%3Balign%3Dcenter%3BverticalAlign%3Dmiddle%3BwhiteSpace%3Dwrap%3Brounded%3D0%3B%22%20vertex%3D%221%22%20parent%3D%221%22%3E%3CmxGeometry%20x%3D%22-790%22%20y%3D%22-170%22%20width%3D%22190%22%20height%3D%2245%22%20as%3D%22geometry%22%2F%3E%3C%2FmxCell%3E%3C%2Froot%3E%3C%2FmxGraphModel%32&lt;/span&gt;" style="text;html=1;align=center;verticalAlign=middle;whiteSpace=wrap;rounded=0;" vertex="1" parent="1">
          <mxGeometry x="-950" y="657.5" width="190" height="45" as="geometry" />
        </mxCell>
        <mxCell id="19fwC29WDZHClAssnjyL-61" value="&lt;span style=&quot;font-size: 17px;&quot;&gt;Пользователь 1&lt;/span&gt;&lt;span style=&quot;color: rgba(0, 0, 0, 0); font-family: monospace; font-size: 0px; text-align: start; text-wrap: nowrap;&quot;&gt;%3CmxGraphModel%3E%3Croot%3E%3CmxCell%20id%3D%220%22%2F%3E%3CmxCell%20id%3D%221%22%20parent%3D%220%22%2F%3E%3CmxCell%20id%3D%222%22%20value%3D%22%26lt%3Bspan%20style%3D%26quot%3Bfont-size%3A%2017px%3B%26quot%3B%26gt%3B%D0%A0%D0%B5%D0%B3%D0%B8%D0%BE%D0%BD%201%26lt%3B%2Fspan%26gt%3B%22%20style%3D%22text%3Bhtml%3D1%3Balign%3Dcenter%3BverticalAlign%3Dmiddle%3BwhiteSpace%3Dwrap%3Brounded%3D0%3B%22%20vertex%3D%221%22%20parent%3D%221%22%3E%3CmxGeometry%20x%3D%22-790%22%20y%3D%22-170%22%20width%3D%22190%22%20height%3D%2245%22%20as%3D%22geometry%22%2F%3E%3C%2FmxCell%3E%3C%2Froot%3E%3C%2FmxGraphModel%3E&lt;/span&gt;" style="text;html=1;align=center;verticalAlign=middle;whiteSpace=wrap;rounded=0;" vertex="1" parent="1">
          <mxGeometry x="-950" y="165" width="190" height="45" as="geometry" />
        </mxCell>
      </root>
    </mxGraphModel>
  </diagram>
</mxfile>
